<svg id="Layer_5" enable-background="new 0 0 64 64" height="512" viewBox="0 0 64 64" width="512" xmlns="http://www.w3.org/2000/svg"><g><g><g><path d="m18 34c0 3.91 1.61 7.45 4.2 10h-12.55c-1.63-1.82-3.03-3.83-4.17-6h4.28c1.37 0 2.63-.77 3.24-2s1.87-2 3.24-2z" fill="#69d6f4"/></g><g><path d="m32 19v1c-4.75 0-8.96 2.37-11.49 6h-2.51c-.55 0-1.05-.22-1.41-.59-.37-.36-.59-.86-.59-1.41 0-1.1-.9-2-2-2h-3c-.83 0-1.58-.34-2.12-.88s-.88-1.29-.88-2.12c0-1.66 1.34-3 3-3h1c.55 0 1.05-.22 1.41-.59.37-.36.59-.86.59-1.41 0-1.1-.9-2-2-2h-7.5c.94-2.14 2.12-4.16 3.52-6h7.98c1.1 0 2 .9 2 2 0 .55.22 1.05.59 1.41.36.37.86.59 1.41.59h3c1.1 0 2 .9 2 2v1c0 1.1.9 2 2 2h1c2.21 0 4 1.79 4 4z" fill="#69d6f4"/></g><g><path d="m62 24c0 7.68-2.89 14.69-7.65 20h-.35v-4c0-.55-.22-1.05-.59-1.41-.36-.37-.86-.59-1.41-.59s-1.05-.22-1.41-.59c-.37-.36-.59-.86-.59-1.41 0-1.1.9-2 2-2h1c.55 0 1.05-.22 1.41-.59.37-.36.59-.86.59-1.41 0-1.1-.9-2-2-2h-7.58c-.69-2.31-1.95-4.36-3.62-6h.2c2.21 0 4-1.79 4-4 0-.55.22-1.05.59-1.41.36-.37.86-.59 1.41-.59h3c1.1 0 2-.9 2-2 0-.55-.22-1.05-.59-1.41-.36-.37-.86-.59-1.41-.59h-8c-1.1 0-2-.9-2-2 0-.55.22-1.05.59-1.41.36-.37.86-.59 1.41-.59h6c1.1 0 2-.9 2-2v-6h1.39c5.91 5.48 9.61 13.31 9.61 22z" fill="#69d6f4"/></g><g><path d="m53 30c1.1 0 2 .9 2 2 0 .55-.22 1.05-.59 1.41-.36.37-.86.59-1.41.59h-1c-1.1 0-2 .9-2 2 0 .55.22 1.05.59 1.41.36.37.86.59 1.41.59s1.05.22 1.41.59c.37.36.59.86.59 1.41v4h-12.2c2.59-2.55 4.2-6.09 4.2-10 0-1.39-.2-2.73-.58-4z" fill="#b4dd7f"/></g><g><path d="m18 26h2.51c-1.58 2.27-2.51 5.03-2.51 8h-1.76c-1.37 0-2.63.77-3.24 2s-1.87 2-3.24 2h-4.28c-2.23-4.18-3.48-8.94-3.48-14 0-4.26.89-8.33 2.5-12h7.5c1.1 0 2 .9 2 2 0 .55-.22 1.05-.59 1.41-.36.37-.86.59-1.41.59h-1c-1.66 0-3 1.34-3 3 0 .83.34 1.58.88 2.12s1.29.88 2.12.88h3c1.1 0 2 .9 2 2 0 .55.22 1.05.59 1.41.36.37.86.59 1.41.59z" fill="#b4dd7f"/></g><g><path d="m52.41 14.59c.37.36.59.86.59 1.41 0 1.1-.9 2-2 2h-3c-.55 0-1.05.22-1.41.59-.37.36-.59.86-.59 1.41 0 2.21-1.79 4-4 4h-.2c-2.53-2.47-5.99-4-9.8-4v-1c0-2.21-1.79-4-4-4h-1c-1.1 0-2-.9-2-2v-1c0-1.1-.9-2-2-2h-3c-.55 0-1.05-.22-1.41-.59-.37-.36-.59-.86-.59-1.41 0-1.1-.9-2-2-2h-7.98c1.07-1.44 2.27-2.78 3.59-4h39.39v6c0 1.1-.9 2-2 2h-6c-.55 0-1.05.22-1.41.59-.37.36-.59.86-.59 1.41 0 1.1.9 2 2 2h8c.55 0 1.05.22 1.41.59z" fill="#b4dd7f"/></g><g><path d="m45.42 30c.38 1.27.58 2.61.58 4 0 3.91-1.61 7.45-4.2 10-2.08 2.03-4.79 3.43-7.81 3.86-.65.09-1.31.14-1.99.14s-1.34-.05-1.99-.14c-3.02-.43-5.73-1.83-7.81-3.86-2.59-2.55-4.2-6.09-4.2-10 0-2.97.93-5.73 2.51-8 2.53-3.63 6.74-6 11.49-6 3.81 0 7.27 1.53 9.8 4 1.67 1.64 2.93 3.69 3.62 6z" fill="#e6e9ed"/></g><g><circle cx="32" cy="34" fill="#4fc1e9" r="10"/></g><g><path d="m35 53v6c0 1.66-1.34 3-3 3s-3-1.34-3-3v-6c0-.55.45-1 1-1h4c.55 0 1 .45 1 1z" fill="#969faa"/></g><g><path d="m34 47.9v4.1h-4v-4.1l.01-.04c.65.09 1.31.14 1.99.14s1.34-.05 1.99-.14z" fill="#ccd1d9"/></g></g><g><path d="m32 23c-6.065 0-11 4.935-11 11s4.935 11 11 11 11-4.935 11-11-4.935-11-11-11zm0 20c-4.962 0-9-4.038-9-9s4.038-9 9-9 9 4.038 9 9-4.038 9-9 9z"/><path d="m53.067 1.267-.287-.267h-41.56l-.288.267c-6.312 5.852-9.932 14.138-9.932 22.733 0 7.637 2.806 14.977 7.9 20.667l.298.333h12.638c1.975 1.826 4.43 3.14 7.163 3.698v2.581c-.595.347-1 .985-1 1.722v6c0 2.206 1.794 4 4 4s4-1.794 4-4v-6c0-.737-.405-1.375-1-1.722v-2.581c2.734-.557 5.188-1.871 7.163-3.698h12.638l.298-.333c5.096-5.69 7.902-13.03 7.902-20.667 0-8.595-3.62-16.881-9.933-22.733zm-41.059 1.733h37.992v5c0 .551-.449 1-1 1h-6c-1.654 0-3 1.346-3 3s1.346 3 3 3h8c.551 0 1 .449 1 1s-.449 1-1 1h-3c-1.654 0-3 1.346-3 3 0 1.604-1.268 2.907-2.853 2.985-2.443-2.253-5.628-3.701-9.147-3.935v-.05c0-2.757-2.243-5-5-5h-1c-.551 0-1-.449-1-1v-1c0-1.654-1.346-3-3-3h-3c-.551 0-1-.449-1-1 0-1.654-1.346-3-3-3h-5.893c.6-.693 1.232-1.363 1.901-2zm8.021 22h-2.029c-.551 0-1-.449-1-1 0-1.654-1.346-3-3-3h-3c-1.103 0-2-.897-2-2s.897-2 2-2h1c1.654 0 3-1.346 3-3s-1.346-3-3-3h-5.903c.7-1.394 1.514-2.731 2.431-4h7.472c.551 0 1 .449 1 1 0 1.654 1.346 3 3 3h3c.551 0 1 .449 1 1v1c0 1.654 1.346 3 3 3h1c1.654 0 3 1.346 3 3v.051c-4.481.297-8.421 2.565-10.971 5.949zm-14.841-12h6.812c.551 0 1 .449 1 1s-.449 1-1 1h-1c-2.206 0-4 1.794-4 4s1.794 4 4 4h3c.551 0 1 .449 1 1 0 1.654 1.346 3 3 3h.744c-.961 1.812-1.55 3.845-1.693 6h-.815c-1.76 0-3.343.978-4.13 2.553-.447.892-1.344 1.447-2.342 1.447h-3.68c-2.01-4.002-3.084-8.443-3.084-13 0-3.802.765-7.537 2.188-11zm1.999 26h2.577c1.76 0 3.343-.978 4.13-2.553.447-.892 1.344-1.447 2.342-1.447h.815c.199 2.992 1.275 5.74 2.978 8h-9.932c-1.09-1.256-2.06-2.596-2.91-4zm26.813 20c0 1.103-.897 2-2 2s-2-.897-2-2v-6h4zm-1-8h-2v-2.051c.332.022.662.051 1 .051s.668-.029 1-.051zm-1-4c-7.168 0-13-5.832-13-13s5.832-13 13-13 13 5.832 13 13-5.832 13-13 13zm14.698-16h6.302c.551 0 1 .449 1 1s-.449 1-1 1h-1c-1.654 0-3 1.346-3 3s1.346 3 3 3c.551 0 1 .449 1 1v3h-9.029c1.893-2.51 3.029-5.621 3.029-9 0-1.027-.105-2.03-.302-3zm8.302 10.648v-1.648c0-1.654-1.346-3-3-3-.551 0-1-.449-1-1s.449-1 1-1h1c1.654 0 3-1.346 3-3s-1.346-3-3-3h-6.875c-.561-1.58-1.372-3.039-2.397-4.326 1.904-.707 3.272-2.527 3.272-4.674 0-.551.449-1 1-1h3c1.654 0 3-1.346 3-3s-1.346-3-3-3h-8c-.551 0-1-.449-1-1s.449-1 1-1h6c1.654 0 3-1.346 3-3v-4.992c5.725 5.458 9 13.085 9 20.992 0 6.412-2.12 12.598-6 17.648z"/><path d="m33 33h2v2h-2z"/><path d="m37 33h2v2h-2z"/><path d="m25 33h2v2h-2z"/><path d="m29 33h2v2h-2z"/></g></g></svg>